<svg width="2019" height="1246" viewBox="0 0 2019 1246" fill="none" xmlns="http://www.w3.org/2000/svg">
<path d="M1 1211.34C87.3119 1225.89 271.663 1252.59 318.572 1242.95C377.209 1230.91 518.871 1155.13 579.065 1150.62C639.258 1146.1 773.656 1167.18 818.282 1189.26C862.908 1211.34 915.318 1230.91 964.614 1229.4C995.576 1228.9 1065.8 1220.17 1099.01 1189.26C1132.22 1158.34 1213.17 1158.65 1249.5 1162.66C1367.29 1189.93 1619.89 1243.96 1687.97 1241.95C1773.07 1239.44 1959.36 1183.23 2018 1193.27" stroke="#39393F"/>
<path d="M9 1C99.4616 24.1651 293.773 72.2953 347.323 79.4948C414.261 88.4943 504.55 93.9939 574.601 111.493C644.653 128.992 721.969 137.991 782.161 140.991C842.354 143.991 1056.66 161.489 1073.78 160.99C1090.91 160.49 1266.3 145.491 1296.39 133.491C1326.49 121.492 1540.27 63.4959 1577.64 59.9961C1615 56.4964 1714.11 60.4961 1771.7 72.4953C1829.3 84.4945 1946.05 81.4947 1972 68.9955" stroke="#040A18"/>
<path d="M1.15698 1185.35C87.5502 1200.07 272.097 1227.19 319.136 1217.89C377.936 1206.25 518.591 1132.07 578.977 1127.99C639.364 1123.9 772.642 1144.74 817.574 1166.45C862.505 1188.15 918.09 1207.69 966.755 1206.2C997.445 1205.7 1069.73 1196.84 1102.88 1166.3C1136.03 1135.76 1219.59 1134.92 1255.93 1138.78C1372.14 1165.45 1621.74 1218.5 1689.62 1216.76C1774.18 1214.54 1959.1 1159.38 2017.1 1168.97" stroke="#38383E"/>
<path d="M1.31372 1159.37C87.7883 1174.26 272.53 1201.8 319.7 1192.82C378.662 1181.61 518.31 1109.02 578.89 1105.36C639.47 1101.71 771.629 1122.31 816.865 1143.65C862.102 1164.98 920.861 1184.47 968.896 1183C999.314 1182.5 1073.66 1173.52 1106.75 1143.35C1139.84 1113.18 1226 1111.2 1262.36 1114.92C1377 1140.98 1623.59 1193.04 1691.26 1191.59C1775.28 1189.65 1958.84 1135.53 2016.2 1144.68" stroke="#37373D"/>
<path d="M1.4707 1133.4C88.0267 1148.46 272.964 1176.42 320.264 1167.77C379.389 1156.97 518.029 1085.97 578.802 1082.75C639.576 1079.53 770.615 1099.89 816.157 1120.85C861.699 1141.81 923.632 1161.26 971.036 1159.81C1001.18 1159.31 1077.6 1150.21 1110.62 1120.41C1143.65 1090.61 1232.41 1087.48 1268.8 1091.06C1381.86 1116.51 1625.43 1167.6 1692.9 1166.42C1776.38 1164.76 1958.58 1111.68 2015.29 1120.4" stroke="#36363C"/>
<path d="M1.62744 1107.43C88.2648 1122.66 273.397 1151.04 320.827 1142.73C380.115 1132.33 517.748 1062.93 578.715 1060.14C639.681 1057.35 769.602 1077.48 815.449 1098.07C861.296 1118.65 926.404 1138.06 973.177 1136.63C1003.05 1136.13 1081.53 1126.91 1114.49 1097.48C1147.46 1068.05 1238.83 1063.78 1275.23 1067.2C1386.72 1092.06 1627.28 1142.16 1694.54 1141.25C1777.48 1139.88 1958.32 1087.85 2014.39 1096.12" stroke="#35353C"/>
<path d="M1.78442 1081.48C88.5032 1096.88 273.831 1125.68 321.391 1117.69C380.842 1107.71 517.467 1039.9 578.627 1037.54C639.787 1035.19 768.589 1055.08 814.741 1075.29C860.893 1095.5 929.175 1114.87 975.317 1113.46C1004.92 1112.96 1085.46 1103.61 1118.36 1074.55C1151.27 1045.49 1245.24 1040.08 1281.67 1043.36C1391.57 1067.61 1629.13 1116.73 1696.18 1116.1C1778.59 1115.01 1958.06 1064.02 2013.49 1071.85" stroke="#34343B"/>
<path d="M1.94116 1055.53C88.7413 1071.1 274.264 1100.32 321.955 1092.66C381.568 1083.1 517.186 1016.88 578.54 1014.95C639.893 1013.03 767.575 1032.68 814.032 1052.52C860.49 1072.36 931.946 1091.68 977.458 1090.3C1006.79 1089.79 1089.39 1080.32 1122.23 1051.64C1155.08 1022.95 1251.65 1016.39 1288.1 1019.52C1396.43 1043.17 1630.98 1091.31 1697.82 1090.95C1779.69 1090.15 1957.8 1040.21 2012.59 1047.59" stroke="#32333A"/>
<path d="M2.09814 1029.6C88.9796 1045.33 274.698 1074.97 322.519 1067.65C382.295 1058.49 516.906 993.87 578.452 992.375C639.999 990.88 766.562 1010.3 813.324 1029.76C860.087 1049.22 934.718 1068.51 979.598 1067.14C1008.66 1066.64 1093.32 1057.05 1126.1 1028.73C1158.89 1000.42 1258.07 992.715 1294.53 995.698C1401.29 1018.74 1632.82 1065.9 1699.47 1065.82C1780.79 1065.3 1957.54 1016.4 2011.69 1023.34" stroke="#313239"/>
<path d="M2.25488 1003.67C89.2177 1019.58 275.131 1049.63 323.082 1042.64C383.021 1033.9 516.625 970.87 578.365 969.807C640.105 968.744 765.548 987.926 812.616 1007.01C859.684 1026.1 937.489 1045.35 981.739 1044C1010.53 1043.5 1097.25 1033.78 1129.97 1005.84C1162.7 977.891 1264.48 969.048 1300.97 971.884C1406.14 994.324 1634.67 1040.51 1701.11 1040.7C1781.89 1040.46 1957.28 992.604 2010.78 999.105" stroke="#303239"/>
<path d="M2.41187 977.758C89.4561 993.83 275.565 1024.31 323.646 1017.65C383.748 1009.32 516.344 947.882 578.277 947.251C640.21 946.619 764.535 965.565 811.908 984.278C859.281 1002.99 940.261 1022.2 983.88 1020.87C1012.4 1020.37 1101.18 1010.53 1133.84 982.955C1166.5 955.38 1270.9 945.393 1307.4 948.081C1411 969.918 1636.52 1015.12 1702.75 1015.58C1783 1015.64 1957.01 968.819 2009.88 974.879" stroke="#2F3138"/>
<path d="M2.5686 952.623C89.6942 968.865 275.998 999.765 324.21 993.43C384.474 985.513 516.063 925.673 578.19 925.473C640.316 925.274 763.521 943.982 811.2 962.321C858.878 980.661 943.032 999.825 986.02 998.517C1014.27 998.016 1105.11 988.055 1137.71 960.851C1170.31 933.647 1277.31 922.517 1313.84 925.058C1415.86 946.292 1638.37 990.512 1704.39 991.251C1784.1 991.587 1956.75 945.814 2008.98 951.432" stroke="#2E3037"/>
<path d="M2.72559 927.923C89.9325 944.334 276.432 975.654 324.774 969.65C385.201 962.145 515.783 903.899 578.102 904.13C640.422 904.362 762.508 922.834 810.491 940.799C858.475 958.764 945.804 977.889 988.161 976.6C1016.14 976.099 1109.05 966.015 1141.58 939.182C1174.12 912.349 1283.72 900.076 1320.27 902.47C1420.72 923.1 1640.21 966.339 1706.03 967.353C1785.2 967.973 1956.49 923.244 2008.08 928.42" stroke="#2D2F36"/>
<path d="M2.88232 903.232C90.1706 919.812 276.865 951.552 325.337 945.878C385.927 938.785 515.502 882.133 578.015 882.797C640.528 883.46 761.494 901.695 809.783 919.286C858.072 936.877 948.575 955.961 990.301 954.692C1018.01 954.19 1112.98 943.984 1145.45 917.521C1177.93 891.059 1290.14 877.643 1326.7 879.89C1425.57 899.917 1642.06 942.175 1707.68 943.463C1786.3 944.368 1956.23 900.682 2007.18 905.416" stroke="#2C2E36"/>
<path d="M3.03931 878.549C90.409 895.297 277.299 927.457 325.901 922.113C386.654 915.434 515.221 860.375 577.927 861.47C640.633 862.565 760.481 880.564 809.075 897.78C857.669 914.997 951.346 934.04 992.442 932.791C1019.88 932.29 1116.91 921.96 1149.32 895.869C1181.74 869.777 1296.55 855.218 1333.14 857.317C1430.43 876.741 1643.91 918.018 1709.32 919.581C1787.41 920.77 1955.97 878.128 2006.27 882.42" stroke="#2B2D35"/>
<path d="M3.19604 853.871C90.6471 870.788 277.732 903.369 326.465 898.355C387.38 892.088 514.94 838.623 577.84 840.15C640.739 841.677 759.467 859.438 808.367 876.281C857.266 893.124 954.118 912.126 994.582 910.897C1021.75 910.395 1120.84 899.943 1153.19 874.222C1185.55 848.502 1302.96 832.8 1339.57 834.751C1435.29 853.572 1645.76 893.868 1710.96 895.706C1788.51 897.179 1955.71 855.58 2005.37 859.43" stroke="#2A2C34"/>
<path d="M3.35303 829.2C90.8854 846.286 278.166 879.287 327.029 874.603C388.107 868.748 514.659 816.877 577.752 818.835C640.845 820.794 758.454 838.319 807.658 854.787C856.863 871.256 956.889 890.217 996.723 889.008C1023.61 888.506 1124.77 877.931 1157.06 852.581C1189.36 827.232 1309.38 810.386 1346.01 812.191C1440.14 830.408 1647.6 869.724 1712.6 871.836C1789.61 873.594 1955.45 833.038 2004.47 836.446" stroke="#292B33"/>
<path d="M3.50977 804.533C91.1235 821.788 278.599 855.209 327.592 850.855C388.833 845.413 514.378 795.135 577.664 797.526C640.951 799.916 757.44 817.204 806.95 833.298C856.46 849.392 959.66 868.314 998.863 867.124C1025.48 866.622 1128.7 855.924 1160.93 830.945C1193.17 805.966 1315.79 787.978 1352.44 789.635C1445 807.249 1649.45 845.584 1714.24 847.97C1790.71 850.013 1955.19 810.5 2003.57 813.466" stroke="#282A33"/>
<path d="M3.66675 779.87C91.3619 797.294 279.033 831.135 328.156 827.112C389.56 822.082 514.098 773.398 577.577 776.22C641.057 779.042 756.427 796.093 806.242 811.813C856.057 827.533 962.432 846.414 1001 845.243C1027.35 844.742 1132.63 833.921 1164.81 809.313C1196.98 784.705 1322.21 765.574 1358.88 767.084C1449.86 784.094 1651.3 821.448 1715.88 824.109C1791.82 826.436 1954.93 787.966 2002.67 790.491" stroke="#272932"/>
<path d="M3.82349 755.21C91.6 772.803 279.466 807.065 328.72 803.371C390.286 798.755 513.817 751.664 577.489 754.918C641.162 758.171 755.413 774.986 805.534 790.332C855.654 805.678 965.203 824.518 1003.14 823.367C1029.22 822.866 1136.56 811.922 1168.68 787.685C1200.79 763.447 1328.62 743.173 1365.31 744.535C1454.71 760.943 1653.14 797.315 1717.53 800.252C1792.92 802.863 1954.67 765.436 2001.76 767.519" stroke="#262831"/>
<path d="M3.98047 730.554C91.8383 748.316 279.9 782.998 329.284 779.634C391.013 775.43 513.536 729.933 577.402 733.619C641.268 737.304 754.4 753.881 804.825 768.853C855.251 783.825 967.975 802.624 1005.29 801.494C1031.09 800.992 1140.5 789.926 1172.55 766.059C1204.6 742.193 1335.03 720.775 1371.74 721.99C1459.57 737.795 1654.99 773.186 1719.17 776.397C1794.02 779.293 1954.41 742.91 2000.86 744.55" stroke="#252730"/>
<path d="M4.13721 705.901C92.0764 723.831 280.333 758.933 329.847 755.9C391.739 752.108 513.255 708.205 577.314 712.322C641.374 716.439 753.386 732.78 804.117 747.378C854.848 761.975 970.746 780.734 1007.43 779.623C1032.96 779.122 1144.43 767.932 1176.42 744.437C1208.4 720.941 1341.45 698.38 1378.18 699.448C1464.43 714.649 1656.84 749.06 1720.81 752.545C1795.12 755.725 1954.14 720.385 1999.96 721.584" stroke="#242630"/>
<path d="M4.29419 681.25C92.3148 699.349 280.767 734.871 330.411 732.168C392.466 728.789 512.974 686.479 577.227 691.028C641.48 695.577 752.373 711.681 803.409 725.904C854.445 740.128 973.518 758.846 1009.57 757.754C1034.83 757.253 1148.36 745.941 1180.29 722.816C1212.21 699.692 1347.86 675.988 1384.61 676.908C1469.29 691.506 1658.69 724.935 1722.45 728.696C1796.23 732.16 1953.88 697.864 1999.06 698.621" stroke="#23262F"/>
<path d="M4.45093 656.6C92.5529 674.869 281.2 710.811 330.975 708.438C393.192 705.472 512.693 664.756 577.139 669.736C641.585 674.717 751.36 690.584 802.701 704.433C854.042 718.283 976.289 736.96 1011.71 735.888C1036.7 735.387 1152.29 723.952 1184.16 701.198C1216.02 678.444 1354.28 653.597 1391.05 654.37C1474.14 668.365 1660.53 700.813 1724.09 704.848C1797.33 708.598 1953.62 675.344 1998.16 675.659" stroke="#22252E"/>
<path d="M4.60791 631.953C92.7913 650.39 281.634 686.753 331.538 684.71C393.919 682.157 512.413 643.034 577.052 648.446C641.691 653.858 750.346 669.488 801.992 682.964C853.639 696.439 979.06 715.076 1013.85 714.024C1038.57 713.523 1156.22 701.965 1188.03 679.582C1219.83 657.199 1360.69 631.209 1397.48 631.835C1479 645.226 1662.38 676.693 1725.73 681.003C1798.43 685.037 1953.36 652.826 1997.26 652.7" stroke="#21242D"/>
<path d="M4.76465 609.294C93.0294 627.9 282.067 664.683 332.102 662.97C394.645 660.829 512.132 623.3 576.964 629.144C641.797 634.988 749.333 650.381 801.284 663.483C853.236 676.584 981.832 695.18 1015.99 694.148C1040.44 693.647 1160.15 681.966 1191.9 659.953C1223.64 637.941 1367.1 610.808 1403.91 611.287C1483.86 624.075 1664.23 654.561 1727.38 659.145C1799.53 663.463 1953.1 632.296 1996.35 631.728" stroke="#20232C"/>
<path d="M4.92163 586.765C93.2677 605.539 282.501 642.743 332.666 641.36C395.372 639.632 511.851 603.697 576.877 609.972C641.903 616.247 748.319 631.404 800.576 644.131C852.833 656.858 984.603 675.414 1018.13 674.401C1042.31 673.9 1164.08 662.096 1195.77 640.455C1227.45 618.813 1373.52 590.537 1410.35 590.868C1488.71 603.053 1666.08 632.559 1729.02 637.417C1800.64 642.02 1952.84 611.896 1995.45 610.886" stroke="#1F222C"/>
<path d="M5.07837 564.235C93.5058 583.179 282.934 620.803 333.23 619.75C396.098 618.434 511.57 584.093 576.789 590.8C642.008 597.507 747.306 612.426 799.868 624.779C852.429 637.132 987.375 655.647 1020.27 654.654C1044.18 654.153 1168.01 642.227 1199.64 620.956C1231.26 599.686 1379.93 570.267 1416.78 570.45C1493.57 582.032 1667.92 610.556 1730.66 615.69C1801.74 620.577 1952.58 591.496 1994.55 590.044" stroke="#1E212B"/>
<path d="M5.23535 541.706C93.7442 560.818 283.368 598.862 333.793 598.14C396.825 597.236 511.289 564.489 576.702 571.627C642.114 578.766 746.292 593.449 799.159 605.428C852.027 617.407 990.146 635.881 1022.41 634.908C1046.05 634.407 1171.95 622.357 1203.51 601.458C1235.07 580.558 1386.34 549.996 1423.22 550.032C1498.43 561.01 1669.77 588.554 1732.3 593.962C1802.84 599.134 1952.32 571.096 1993.65 569.202" stroke="#1D202A"/>
<path d="M5.39209 519.177C93.9823 538.458 283.801 576.922 334.357 576.53C397.551 576.039 511.009 544.885 576.614 552.455C642.22 560.025 745.279 574.472 798.451 586.076C851.623 597.681 992.917 616.115 1024.55 615.161C1047.91 614.66 1175.88 602.488 1207.38 581.959C1238.88 561.43 1392.76 529.725 1429.65 529.614C1503.28 539.989 1671.62 566.551 1733.94 572.234C1803.94 577.69 1952.06 550.696 1992.74 548.36" stroke="#1C1F29"/>
<path d="M5.54907 496.647C94.2206 516.097 284.235 554.982 334.921 554.919C398.278 554.841 510.728 525.281 576.527 533.283C642.326 541.285 744.265 555.494 797.743 566.725C851.221 577.955 995.689 596.348 1026.69 595.415C1049.78 594.914 1179.81 582.618 1211.25 562.46C1242.69 542.302 1399.17 509.454 1436.09 509.196C1508.14 518.968 1673.47 544.549 1735.59 550.506C1805.05 556.247 1951.8 530.296 1991.84 527.518" stroke="#1B1E29"/>
<path d="M5.70581 474.118C94.4587 493.737 284.669 533.041 335.484 533.309C399.004 533.644 510.447 505.677 576.439 514.111C642.432 522.544 743.252 536.517 797.035 547.373C850.817 558.23 998.46 576.582 1028.83 575.668C1051.65 575.167 1183.74 562.749 1215.12 542.962C1246.5 523.175 1405.59 489.183 1442.52 488.778C1513 497.946 1675.31 522.547 1737.23 528.778C1806.15 534.804 1951.53 509.896 1990.94 506.676" stroke="#1A1D28"/>
<path d="M5.86279 451.588C94.6971 471.376 285.102 511.101 336.048 511.699C399.731 512.446 510.166 486.073 576.352 494.938C642.537 503.804 742.238 517.539 796.326 528.022C850.414 538.504 1001.23 556.816 1030.97 555.921C1053.52 555.421 1187.67 542.879 1218.99 523.463C1250.31 504.047 1412 468.912 1448.95 468.359C1517.86 476.925 1677.16 500.544 1738.87 507.051C1807.25 513.36 1951.27 489.496 1990.04 485.834" stroke="#191C27"/>
<path d="M6.01953 429.059C94.9352 449.016 285.536 489.161 336.612 490.089C400.457 491.248 509.885 466.469 576.264 475.766C642.643 485.063 741.225 498.562 795.618 508.67C850.011 518.778 1004 537.049 1033.11 536.175C1055.39 535.674 1191.6 523.01 1222.86 503.965C1254.11 484.919 1418.41 448.642 1455.39 447.941C1522.71 455.903 1679.01 478.542 1740.51 485.323C1808.35 491.917 1951.01 469.096 1989.14 464.992" stroke="#181B26"/>
<path d="M6.17651 406.529C95.1735 426.655 285.969 467.221 337.176 468.479C401.184 470.051 509.605 446.865 576.177 456.594C642.749 466.322 740.212 479.584 794.91 489.319C849.608 499.053 1006.77 517.283 1035.25 516.428C1057.26 515.928 1195.53 503.141 1226.73 484.466C1257.92 465.791 1424.83 428.371 1461.82 427.523C1527.57 434.882 1680.85 456.539 1742.15 463.595C1809.46 470.474 1950.75 448.696 1988.24 444.15" stroke="#171B26"/>
<path d="M6.33325 384C95.4116 404.294 286.403 445.28 337.739 446.868C401.91 448.853 509.324 427.261 576.089 437.421C642.855 447.582 739.198 460.607 794.202 469.967C849.205 479.327 1009.55 497.517 1037.39 496.682C1059.13 496.181 1199.46 483.271 1230.6 464.967C1261.73 446.664 1431.24 408.1 1468.26 407.105C1532.43 413.86 1682.7 434.537 1743.79 441.867C1810.56 449.03 1950.49 428.296 1987.33 423.308" stroke="#161A25"/>
<path d="M6.49023 361.471C95.65 381.934 286.836 423.34 338.303 425.258C402.637 427.656 509.043 407.657 576.002 418.249C642.961 428.841 738.185 441.63 793.493 450.616C848.802 459.601 1012.32 477.75 1039.53 476.935C1061 476.434 1203.4 463.402 1234.47 445.469C1265.54 427.536 1437.65 387.829 1474.69 386.687C1537.28 392.839 1684.55 412.535 1745.44 420.14C1811.66 427.587 1950.23 407.896 1986.43 402.466" stroke="#151924"/>
<path d="M6.64697 338.941C95.8881 359.573 287.27 401.4 338.867 403.648C403.363 406.458 508.762 388.053 575.914 399.077C643.066 410.101 737.171 422.652 792.785 431.264C848.399 439.876 1015.09 457.984 1041.67 457.188C1062.87 456.688 1207.33 443.532 1238.34 425.97C1269.35 408.408 1444.07 367.558 1481.12 366.269C1542.14 371.818 1686.4 390.532 1747.08 398.412C1812.76 406.144 1949.97 387.496 1985.53 381.625" stroke="#131823"/>
<path d="M6.80396 316.412C96.1264 337.213 287.703 379.459 339.431 382.038C404.09 385.26 508.481 368.449 575.827 379.905C643.172 391.36 736.158 403.675 792.077 411.912C847.996 420.15 1017.86 438.218 1043.82 437.442C1064.74 436.941 1211.26 423.663 1242.21 406.472C1273.16 389.28 1450.48 347.287 1487.56 345.85C1547 350.796 1688.24 368.53 1748.72 376.684C1813.87 384.701 1949.71 367.095 1984.63 360.783" stroke="#121723"/>
<path d="M6.96069 293.882C96.3645 314.852 288.137 357.519 339.994 360.427C404.816 364.063 508.2 348.845 575.739 360.732C643.278 372.619 735.144 384.697 791.369 392.561C847.593 400.424 1020.63 418.451 1045.96 417.695C1066.61 417.195 1215.19 403.793 1246.08 386.973C1276.97 370.153 1456.9 327.017 1493.99 325.432C1551.86 329.775 1690.09 346.527 1750.36 354.956C1814.97 363.257 1949.45 346.695 1983.73 339.941" stroke="#111622"/>
<path d="M7.11768 271.353C96.6029 292.492 288.57 335.579 340.558 338.817C405.543 342.865 507.92 329.241 575.652 341.56C643.384 353.879 734.131 365.72 790.66 373.209C847.19 380.699 1023.4 398.685 1048.1 397.949C1068.48 397.448 1219.12 383.924 1249.95 367.474C1280.78 351.025 1463.31 306.746 1500.43 305.014C1556.71 308.753 1691.94 324.525 1752 333.229C1816.07 341.814 1949.19 326.295 1982.82 319.099" stroke="#101521"/>
<path d="M7.27441 248.824C96.841 270.131 289.004 313.639 341.122 317.207C406.269 321.668 507.639 309.637 575.564 322.388C643.489 335.138 733.117 346.743 789.952 353.858C846.787 360.973 1026.17 378.919 1050.24 378.202C1070.35 377.702 1223.05 364.054 1253.82 347.976C1284.59 331.897 1469.72 286.475 1506.86 284.596C1561.57 287.732 1693.79 302.523 1753.64 311.501C1817.17 320.371 1948.93 305.895 1981.92 298.257" stroke="#0F1420"/>
<path d="M7.4314 226.294C97.0793 247.771 289.437 291.698 341.686 295.597C406.996 300.47 507.358 290.033 575.477 303.216C643.595 316.398 732.104 327.765 789.244 334.506C846.384 341.247 1028.95 359.153 1052.38 358.455C1072.21 357.955 1226.98 344.185 1257.69 328.477C1288.4 312.77 1476.14 266.204 1513.29 264.178C1566.43 266.711 1695.63 280.52 1755.29 289.773C1818.28 298.927 1948.66 285.495 1981.02 277.415" stroke="#0E1320"/>
<path d="M7.58813 203.765C97.3175 225.41 289.871 269.758 342.249 273.987C407.722 279.273 507.077 270.429 575.389 284.043C643.701 297.657 731.09 308.788 788.536 315.155C845.981 321.522 1031.72 339.386 1054.52 338.709C1074.08 338.209 1230.91 324.316 1261.56 308.979C1292.21 293.642 1482.55 245.933 1519.73 243.76C1571.28 245.689 1697.48 258.518 1756.93 268.045C1819.38 277.484 1948.4 265.095 1980.12 256.573" stroke="#0D121F"/>
<path d="M7.74512 181.235C97.5558 203.05 290.304 247.818 342.813 252.376C408.449 258.075 506.796 250.825 575.302 264.871C643.807 278.916 730.077 289.81 787.828 295.803C845.578 301.796 1034.49 319.62 1056.66 318.962C1075.95 318.462 1234.85 304.446 1265.43 289.48C1296.01 274.514 1488.96 225.663 1526.16 223.341C1576.14 224.668 1699.33 236.515 1758.57 246.317C1820.48 256.041 1948.14 244.695 1979.22 235.731" stroke="#0C111E"/>
<path d="M7.90186 158.706C97.7939 180.689 290.738 225.877 343.377 230.766C409.176 236.877 506.515 231.222 575.214 245.699C643.912 260.176 729.063 270.833 787.119 276.452C845.175 282.07 1037.26 299.854 1058.8 299.216C1077.82 298.715 1238.78 284.577 1269.3 269.981C1299.82 255.386 1495.38 205.392 1532.6 202.923C1581 203.646 1701.18 214.513 1760.21 224.59C1821.58 234.598 1947.88 224.295 1978.31 214.889" stroke="#0B101D"/>
<path d="M8.05884 136.176C98.0323 158.328 291.171 203.937 343.941 209.156C409.902 215.68 506.235 211.618 575.127 226.526C644.018 241.435 728.05 251.855 786.411 257.1C844.772 262.345 1040.03 280.087 1060.94 279.469C1079.69 278.969 1242.71 264.707 1273.17 250.483C1303.63 236.259 1501.79 185.121 1539.03 182.505C1585.85 182.625 1703.02 192.511 1761.85 202.862C1822.69 213.154 1947.62 203.895 1977.41 194.047" stroke="#0A101D"/>
<path d="M8.21558 113.647C98.2704 135.968 291.605 181.997 344.504 187.546C410.629 194.482 505.954 192.014 575.039 207.354C644.124 222.695 727.036 232.878 785.703 237.749C844.369 242.619 1042.8 260.321 1063.08 259.722C1081.56 259.222 1246.64 244.838 1277.04 230.984C1307.44 217.131 1508.21 164.85 1545.46 162.087C1590.71 161.603 1704.87 170.508 1763.5 181.134C1823.79 191.711 1947.36 183.495 1976.51 173.205" stroke="#090F1C"/>
<path d="M8.37256 91.1177C98.5087 113.607 292.038 160.057 345.068 165.936C411.355 173.285 505.673 172.41 574.951 188.182C644.23 203.954 726.023 213.901 784.995 218.397C843.966 222.893 1045.57 240.555 1065.22 239.976C1083.43 239.476 1250.57 224.968 1280.91 211.486C1311.25 198.003 1514.62 144.579 1551.9 141.669C1595.57 140.582 1706.72 148.506 1765.14 159.406C1824.89 170.268 1947.1 163.095 1975.61 152.363" stroke="#080E1B"/>
<path d="M8.5293 68.5883C98.7468 91.2468 292.472 138.116 345.632 144.325C412.082 152.087 505.392 152.806 574.864 169.01C644.335 185.213 725.009 194.923 784.286 199.045C843.563 203.168 1048.35 220.788 1067.36 220.229C1085.3 219.729 1254.5 205.099 1284.78 191.987C1315.06 178.875 1521.03 124.308 1558.33 121.251C1600.43 119.561 1708.56 126.503 1766.78 137.679C1825.99 148.824 1946.84 142.695 1974.71 131.521" stroke="#070D1A"/>
<path d="M8.68628 46.0588C98.9852 68.8863 292.905 116.176 346.196 122.715C412.808 130.889 505.111 133.202 574.776 149.837C644.441 166.473 723.996 175.946 783.578 179.694C843.16 183.442 1051.12 201.022 1069.5 200.483C1087.17 199.983 1258.43 185.229 1288.65 172.489C1318.87 159.748 1527.45 104.038 1564.77 100.832C1605.28 98.5392 1710.41 104.501 1768.42 115.951C1827.1 127.381 1946.58 122.295 1973.8 110.679" stroke="#060C1A"/>
<path d="M8.84302 23.5294C99.2233 46.5257 293.339 94.2356 346.759 101.105C413.535 109.692 504.831 113.598 574.689 130.665C644.547 147.732 722.982 156.968 782.87 160.342C842.757 163.716 1053.89 181.256 1071.64 180.736C1089.04 180.236 1262.36 165.36 1292.52 152.99C1322.68 140.62 1533.86 83.7667 1571.2 80.4143C1610.14 77.5178 1712.26 82.4985 1770.06 94.2231C1828.2 105.938 1946.32 101.895 1972.9 89.8375" stroke="#050B19"/>
</svg>
