<?xml version="1.0" encoding="utf-8"?>
<!-- Generator: Adobe Illustrator 26.0.3, SVG Export Plug-In . SVG Version: 6.00 Build 0)  -->
<svg version="1.1" xmlns="http://www.w3.org/2000/svg" xmlns:xlink="http://www.w3.org/1999/xlink" x="0px" y="0px"
	 viewBox="0 0 792 612" style="enable-background:new 0 0 792 612;" xml:space="preserve">
<g id="Layer_3" style="display:none;">
	<rect x="-44.04" y="-43.26" style="display:inline;fill:#FFFFFF;" width="903.13" height="688.7"/>
</g>
<g id="Layer_2">
	<g id="Layer_1">
		<g>
			<g>
				<path style="fill:#8C1D3B;" d="M346.9,287.36c0,3.24-1.31,6.18-3.44,8.3s-5.06,3.44-8.3,3.44h-108
					c-6.49,0-11.74-5.26-11.74-11.74c0-3.24,1.31-6.18,3.44-8.3c1.74-1.74,4.02-2.94,6.58-3.31c0.56-0.09,1.13-0.13,1.72-0.13h108
					c0.58,0,1.16,0.04,1.72,0.13C342.54,276.58,346.9,281.46,346.9,287.36z"/>
				<path style="fill:#8C1D3B;" d="M622.85,175.38l-3.6,17.39c-3.81,18.4-20.01,31.59-38.8,31.59h-75.17
					c-7.25,0-13.5,5.08-14.99,12.18l-41.13,196.55c-0.89,4.27-4.65,7.32-9.01,7.32l0,0c-30.52,0.29-61.05,0.58-91.57,0.87
					c-6.48,0-11.74-5.26-11.74-11.74c0-3.24,1.32-6.17,3.44-8.3c2.12-2.13,5.06-3.44,8.3-3.44h53.48l0.01-0.06
					c1.69-0.17,3.27-0.7,4.67-1.51c0.9-0.51,1.72-1.15,2.45-1.87c2.13-2.12,3.44-5.06,3.44-8.3c-0.02-0.83-0.13-2.02-0.5-3.39
					c-0.4-1.46-1.36-5-4.66-7.15c-2.12-1.38-4.33-1.6-5.64-1.6l-105.54,0c-6.48,0-12.16-5.3-12.15-11.77
					c0.01-3.23,1.32-6.15,3.44-8.27c2.12-2.13,5.05-3.44,8.3-3.44h117.33c8.04-0.07,16.09-0.14,24.13-0.21
					c3.94,0,7.5-1.32,10.09-3.44c2.59-2.12,4.19-5.06,4.19-8.3c0-6.48-6.4-11.74-14.28-11.74c-6.17-0.07-12.34-0.13-18.51-0.2
					l-240.98,0c-6.48,0-12.16-5.3-12.15-11.77c0.01-3.23,1.32-6.15,3.44-8.27c2.13-2.13,5.06-3.44,8.3-3.44l222,0c0,0,0,0,0,0
					c0.65,0.06,3.25,0.26,6.49,0c4.52-0.37,10.3-1.65,13.79-5.51c0.79-0.87,2.41-2.67,2.94-5.48c0.77-4.12-1.38-7.42-1.7-7.89
					c-2.7-4.02-7.62-4.83-12.78-5.68c-4.31-0.7-5.22-0.15-17.15-0.58c-3.99-0.15-3.25-0.18-5.87-0.26
					c-13.94-0.43-17.75,1.19-22.64-1.47c-0.1-0.04-0.19-0.09-0.29-0.15c-1.6-0.91-2.74-1.95-3.52-2.82
					c-0.25-0.29-0.47-0.56-0.65-0.8c-0.33-0.45-0.53-0.79-0.64-0.98c-0.05-0.08-0.09-0.17-0.14-0.25c-0.07-0.13-0.14-0.27-0.21-0.4
					c-0.02-0.06-0.05-0.12-0.08-0.18c-0.13-0.27-0.24-0.55-0.35-0.82c-0.15-0.41-0.28-0.82-0.39-1.22
					c-0.03-0.13-0.06-0.26-0.09-0.39c-0.03-0.13-0.06-0.25-0.08-0.38c-0.03-0.13-0.06-0.27-0.07-0.4c-0.09-0.59-0.14-1.18-0.14-1.79
					c0-0.37,0.02-0.75,0.06-1.11c0.07-0.86,0.25-1.69,0.5-2.48c0.41-1.3,1.02-3.26,2.88-4.71c1.54-1.2,3.22-1.49,4.2-1.57
					c0,0,0,0,0.01,0l87.84,0c3.24,0,6.18-1.32,8.3-3.44c2.13-2.12,3.44-5.06,3.44-8.3c0-0.94-0.11-1.86-0.32-2.74
					c-1.23-5.16-5.87-9-11.42-9l-277.69,0c-6.48,0-12.16-5.3-12.15-11.77c0.01-3.23,1.32-6.15,3.44-8.27
					c2.13-2.13,5.06-3.44,8.3-3.44c17.94,0.19,35.88,0.37,53.82,0.56c1.17,0.03,2.34,0.07,3.51,0.1h214.8
					c2.33,0,4.45-0.95,5.98-2.48c1.5-1.5,2.44-3.58,2.47-5.86c0.07-4.72-4.09-8.58-8.81-8.58l-147.35,0c-3.97,0-7.23-3.02-7.61-6.89
					c-0.03-0.25-0.04-0.5-0.04-0.76c0-2.11,0.86-4.02,2.24-5.41c1.38-1.38,3.3-2.24,5.41-2.24c26.21-0.36,52.42-0.72,78.63-1.07
					c0,0,0,0,0.01,0c0.5-0.06,1.24-0.2,2.05-0.59c0.93-0.44,1.5-0.98,1.63-1.11c1.01-0.97,1.37-2.06,1.63-2.84
					c0.22-0.66,0.48-1.69,0.46-3c0.04-0.83,0-2.17-0.62-3.65c-0.22-0.53-0.64-1.52-1.6-2.45c-0.68-0.66-1.37-1.04-1.86-1.3
					c-0.2-0.11-0.83-0.44-1.73-0.75c-0.85-0.29-2.31-0.68-4.31-0.72c-7.1,0-14.2,0-21.3,0c-5.4,0-9.96-3.65-11.32-8.62
					c-0.27-0.99-0.42-2.04-0.42-3.12c0-3.24,1.31-6.17,3.44-8.3c0.12-0.12,0.24-0.23,0.36-0.35c2.1-1.92,4.88-3.09,7.94-3.09h256.63
					C617.36,156.27,624.89,165.52,622.85,175.38z"/>
				<path style="fill:#8C1D3B;" d="M327.72,168.01c0,3.24-1.31,6.17-3.44,8.3c-2.12,2.13-5.05,3.44-8.3,3.44l-27.75,0
					c-6.5,0-12.2-5.32-12.16-11.82c0.02-3.21,1.34-6.11,3.44-8.22c2.12-2.13,5.06-3.44,8.3-3.44h28.17
					C322.47,156.27,327.72,161.53,327.72,168.01z"/>
				<path style="fill:#8C1D3B;" d="M321.82,429.16c0.23,3.55-1.12,6.77-3.42,9.07c-2.12,2.13-5.06,3.44-8.3,3.44h-53.85
					c-6.52,0-12.21-5.33-12.15-11.85c0.03-3.21,1.34-6.09,3.44-8.19c2.12-2.13,5.06-3.44,8.3-3.44h53.85
					C315.95,418.19,321.42,422.92,321.82,429.16z"/>
			</g>
		</g>
	</g>
</g>
</svg>
